HIERARCHY
ROOT hip
{
  OFFSET 0 0 0
  CHANNELS 6 Xposition Yposition Zposition Xrotation Yrotation Zrotation
  JOINT abdomen
  {
    OFFSET 0 20.6881 -0.73152
    CHANNELS 3 Xrotation Yrotation Zrotation
    JOINT chest
    {
      OFFSET 0 11.7043 -0.48768
      CHANNELS 3 Xrotation Yrotation Zrotation
      JOINT neck
      {
        OFFSET 0 22.1894 -2.19456
        CHANNELS 3 Xrotation Yrotation Zrotation
        JOINT head
        {
          OFFSET -0.24384 7.07133 1.2192
          CHANNELS 3 Xrotation Yrotation Zrotation
          JOINT leftEye
          {
            OFFSET 4.14528 8.04674 8.04672
            CHANNELS 3 Xrotation Yrotation Zrotation
            End Site
            {
              OFFSET 1 0 0
            }
          }
          JOINT rightEye
          {
            OFFSET -3.6576 8.04674 8.04672
            CHANNELS 3 Xrotation Yrotation Zrotation
            End Site
            {
              OFFSET 1 0 0
            }
          }
        }
      }
      JOINT rCollar
      {
        OFFSET -2.68224 19.2634 -4.8768
        CHANNELS 3 Xrotation Yrotation Zrotation
        JOINT rShldr
        {
          OFFSET -8.77824 -1.95073 1.46304
          CHANNELS 3 Xrotation Yrotation Zrotation
          JOINT rForeArm
          {
            OFFSET -28.1742 -1.7115 0.48768
            CHANNELS 3 Xrotation Yrotation Zrotation
            JOINT rHand
            {
              OFFSET -22.5879 0.773209 7.07136
              CHANNELS 3 Xrotation Yrotation Zrotation
              JOINT rThumb1
              {
                OFFSET -1.2192 -0.487915 3.41376
                CHANNELS 3 Xrotation Yrotation Zrotation
                JOINT rThumb2
                {
                  OFFSET -3.37035 -0.52449 3.41376
                  CHANNELS 3 Xrotation Yrotation Zrotation
                  End Site
                  {
                    OFFSET -1.78271 -1.18214 1.43049
                  }
                }
              }
              JOINT rIndex1
              {
                OFFSET -7.75947 0.938293 5.60832
                CHANNELS 3 Xrotation Yrotation Zrotation
                JOINT rIndex2
                {
                  OFFSET -2.54057 -0.884171 1.56538
                  CHANNELS 3 Xrotation Yrotation Zrotation
                  End Site
                  {
                    OFFSET -1.62519 -0.234802 1.16502
                  }
                }
              }
              JOINT rMid1
              {
                OFFSET -8.24714 1.18213 3.41376
                CHANNELS 3 Xrotation Yrotation Zrotation
                JOINT rMid2
                {
                  OFFSET -3.10165 -0.590103 1.0647
                  CHANNELS 3 Xrotation Yrotation Zrotation
                  End Site
                  {
                    OFFSET -2.48547 -0.328903 0.83742
                  }
                }
              }
              JOINT rRing1
              {
                OFFSET -8.82822 0.546677 1.51678
                CHANNELS 3 Xrotation Yrotation Zrotation
                JOINT rRing2
                {
                  OFFSET -2.60934 -0.819778 -0.0198488
                  CHANNELS 3 Xrotation Yrotation Zrotation
                  End Site
                  {
                    OFFSET -2.33842 -0.294052 0.168128
                  }
                }
              }
              JOINT rPinky1
              {
                OFFSET -8.27202 -0.0477905 -0.4584
                CHANNELS 3 Xrotation Yrotation Zrotation
                JOINT rPinky2
                {
                  OFFSET -1.82734 -0.647385 -0.700984
                  CHANNELS 3 Xrotation Yrotation Zrotation
                  End Site
                  {
                    OFFSET -1.69225 -0.51767 -0.607171
                  }
                }
              }
            }
          }
        }
      }
      JOINT lCollar
      {
        OFFSET 2.68224 19.2634 -4.8768
        CHANNELS 3 Xrotation Yrotation Zrotation
        JOINT lShldr
        {
          OFFSET 8.77824 -1.95073 1.46304
          CHANNELS 3 Xrotation Yrotation Zrotation
          JOINT lForeArm
          {
            OFFSET 28.1742 -1.7115 0.48768
            CHANNELS 3 Xrotation Yrotation Zrotation
            JOINT lHand
            {
              OFFSET 22.5879 0.773209 7.07136
              CHANNELS 3 Xrotation Yrotation Zrotation
              JOINT lThumb1
              {
                OFFSET 1.2192 -0.487915 3.41376
                CHANNELS 3 Xrotation Yrotation Zrotation
                JOINT lThumb2
                {
                  OFFSET 3.37035 -0.52449 3.41376
                  CHANNELS 3 Xrotation Yrotation Zrotation
                  End Site
                  {
                    OFFSET 1.78271 -1.18214 1.43049
                  }
                }
              }
              JOINT lIndex1
              {
                OFFSET 7.75947 0.938293 5.60832
                CHANNELS 3 Xrotation Yrotation Zrotation
                JOINT lIndex2
                {
                  OFFSET 2.54057 -0.884171 1.56538
                  CHANNELS 3 Xrotation Yrotation Zrotation
                  End Site
                  {
                    OFFSET 1.62519 -0.234802 1.16502
                  }
                }
              }
              JOINT lMid1
              {
                OFFSET 8.24714 1.18213 3.41376
                CHANNELS 3 Xrotation Yrotation Zrotation
                JOINT lMid2
                {
                  OFFSET 3.10165 -0.590103 1.0647
                  CHANNELS 3 Xrotation Yrotation Zrotation
                  End Site
                  {
                    OFFSET 2.48547 -0.328903 0.83742
                  }
                }
              }
              JOINT lRing1
              {
                OFFSET 8.82822 0.546677 1.51678
                CHANNELS 3 Xrotation Yrotation Zrotation
                JOINT lRing2
                {
                  OFFSET 2.60934 -0.819778 -0.0198488
                  CHANNELS 3 Xrotation Yrotation Zrotation
                  End Site
                  {
                    OFFSET 2.33842 -0.294052 0.168128
                  }
                }
              }
              JOINT lPinky1
              {
                OFFSET 8.27202 -0.0477905 -0.4584
                CHANNELS 3 Xrotation Yrotation Zrotation
                JOINT lPinky2
                {
                  OFFSET 1.82734 -0.647385 -0.700984
                  CHANNELS 3 Xrotation Yrotation Zrotation
                  End Site
                  {
                    OFFSET 1.69225 -0.51767 -0.607171
                  }
                }
              }
            }
          }
        }
      }
    }
  }
  JOINT rButtock
  {
    OFFSET -8.77824 4.35084 1.2192
    CHANNELS 3 Xrotation Yrotation Zrotation
    JOINT rThigh
    {
      OFFSET 0 -1.70687 -2.19456
      CHANNELS 3 Xrotation Yrotation Zrotation
      JOINT rShin
      {
        OFFSET 0 -36.8199 0.73152
        CHANNELS 3 Xrotation Yrotation Zrotation
        JOINT rFoot
        {
          OFFSET 0.73152 -45.1104 -5.12064
          CHANNELS 3 Xrotation Yrotation Zrotation
          End Site
          {
            OFFSET -1.1221 -3.69964 12.103
          }
        }
      }
    }
  }
  JOINT lButtock
  {
    OFFSET 8.77824 4.35084 1.2192
    CHANNELS 3 Xrotation Yrotation Zrotation
    JOINT lThigh
    {
      OFFSET 0 -1.70687 -2.19456
      CHANNELS 3 Xrotation Yrotation Zrotation
      JOINT lShin
      {
        OFFSET 0 -36.8199 0.73152
        CHANNELS 3 Xrotation Yrotation Zrotation
        JOINT lFoot
        {
          OFFSET -0.73152 -45.1104 -5.12064
          CHANNELS 3 Xrotation Yrotation Zrotation
          End Site
          {
            OFFSET 1.1221 -3.69964 12.103
          }
        }
      }
    }
  }
}
MOTION
Frames:	5
Frame Time:	0.00833333
0.000000 0.000000 0.000000 2.618018 -2.485222 -0.761364 2.764950 0.136381 -0.515586 -0.383347 2.627592 -0.940590 -0.829351 0.421550 -3.201228 0.042265 2.010800 -2.211650 3.449635 1.924108 -2.517366 0.291611 -4.776293 -3.753232 1.687413 4.708844 -0.975075 -2.700671 -4.425054 -2.986485 -1.681957 -0.155366 -0.672575 3.075517 -2.799669 -1.713376 -0.182074 -0.427973 1.276665 -2.772937 4.893286 -0.269823 -1.146964 4.266238 -1.938441 0.124573 0.660605 0.405042 1.308320 -4.373997 -4.049954 0.044480 0.929070 -4.682281 -0.721211 1.584240 -2.195550 -1.518866 -0.817752 -0.270777 -2.898074 -4.819603 -2.105380 1.451343 3.138440 4.166066 -2.509049 0.431820 -0.562406 1.707783 -0.845136 1.692719 2.933038 -4.188577 0.621261 3.357393 -4.539786 2.038716 -2.081102 -2.475340 3.117886 0.547647 -2.966054 -3.372552 3.661377 -4.511763 3.344811 0.241778 3.081136 -2.785557 0.060602 -2.418005 -0.648634 -1.497685 0.210304 -4.094396 -2.339972 1.392252 -0.760082 -1.032983 4.680474 0.297257 -0.713674 1.251036 1.255856 -2.439641 3.860425 -0.334374 4.688922 -1.210626 0.986066 -2.067737 -2.113317 -1.025926 1.868734 3.692018 0.679284 -4.766548 2.358815 -4.064191 2.931748 4.374491 1.650089 2.869125 -3.894519 -3.887247 -0.104491 0.318182 -2.864614 2.582846 -1.796744 1.155626
-0.863400 46.452202 -0.810800 6.212257 -56.825108 0.976416 26.555818 57.018710 -21.857738 -26.216617 -29.675596 -3.706941 -41.699427 -68.072644 -76.010475 -89.954961 42.553485 91.452598 27.170508 45.157024 -58.749266 1.039451 -9.904459 155.861527 -95.259862 -14.541891 -15.790753 -71.052684 -25.980301 -49.625181 180.489877 -36.697497 136.831784 104.690490 -17.754704 -35.790034 96.161357 -20.915708 -43.546179 -21.270052 -11.595639 -26.942259 -108.773039 -30.815855 -1.356303 176.826373 8.493707 5.850444 -40.955571 33.390865 -4.945053 -4.630702 -54.501611 -29.045779 -1.006451 2.564435 27.983083 34.173604 -13.825277 -48.994101 -144.867477 53.973634 -87.877214 -34.060415 -66.746595 -79.013399 4.527395 -12.157605 -2.726300 -65.907519 -2.474976 -47.826478 -128.627067 74.619746 -49.068959 -149.120941 -1.271158 -14.983891 161.946121 66.637732 11.729536 -28.318843 2.849078 55.581161 -37.007165 1.108132 -19.810122 2.304370 -36.863798 57.973823 -155.587113 21.783611 64.906712 150.677941 61.846720 131.349652 -41.698858 20.012758 19.841340 64.639439 -24.571643 -49.599312 -26.527520 8.878362 -4.851667 65.886855 57.841385 -61.684914 -50.575173 15.203914 161.643117 148.732822 -9.894085 -11.137078 125.617479 81.641316 146.384016 -45.160877 23.921846 92.357620 -66.893478 8.218012 164.732688 -78.759517 32.842158 -97.879760 -64.864600 -2.274709 -90.559274 176.259615 29.132195 -5.172165
-1.184300 51.218803 0.112500 4.420106 -49.985354 -2.252751 -175.732126 -1.187131 -179.106919 -169.754643 -6.289741 -179.015368 -96.838830 -74.303355 -142.557710 -125.541500 36.508985 137.618378 -6.580046 35.074629 4.594355 -3.271960 19.736903 13.168027 -122.256038 -24.139837 -6.339229 -29.917213 -15.525642 -47.263961 -26.259644 80.783876 -138.343161 -31.498890 4.524685 2.677241 -1.874401 -24.793058 0.543186 10.133974 20.941357 -38.363512 120.729140 -63.667779 -48.109606 38.298682 -78.972298 -143.961972 -71.561671 -7.341421 18.346975 68.573980 -30.463087 -27.846866 4.876722 1.830043 -23.098382 -141.208803 -10.091228 -63.517282 -83.261443 8.035166 8.816419 48.564549 -7.064374 -12.215624 -11.550326 3.927704 -0.845048 159.480942 18.192512 85.052777 136.963190 -78.218727 -19.253762 47.586908 2.921091 18.460788 59.595619 80.087142 110.468096 -80.833027 -25.138663 -47.759467 34.388863 15.558437 7.833694 -25.589874 53.249723 167.481040 -124.592390 31.737970 16.810594 -141.973708 50.844598 20.678231 -58.818107 7.549823 -1.089631 73.549766 9.102771 -10.579190 151.077784 -47.920369 -11.979845 147.355750 19.193036 -40.803658 -31.593144 15.430031 90.510697 -114.883825 18.515890 -70.646879 69.288404 -12.702275 -89.396722 -37.952574 12.222562 -47.113578 1.524066 -14.586374 -7.277805 -8.264471 -46.790562 91.049509 181.861649 34.329960 -75.106297 -22.820725 -61.858278 -115.032727
-1.539500 54.623199 0.096800 1.377969 -60.106561 -6.029968 -166.708259 -5.707267 -176.812154 -169.325548 -9.563138 -183.122452 -117.975711 62.216853 142.032046 -41.396050 -58.964067 -54.896244 2.319069 10.792872 11.079588 -0.879366 -6.975201 -6.249673 10.518394 9.830747 -4.219766 180.984489 -20.445674 -72.232595 21.241727 68.729349 -174.521092 -41.482155 -4.506234 -10.338083 118.177072 -77.931941 -76.211833 58.223016 -33.016214 -103.968918 130.026233 -50.967419 -57.847693 15.301054 0.657271 12.997827 156.276466 -33.094980 -21.803287 -11.327380 8.458649 -14.458854 40.359519 5.124595 4.468263 -94.268531 -0.233372 -8.312757 -106.024568 21.488752 -53.870547 -171.504297 41.934410 -62.610598 165.510589 8.658252 23.395353 -5.148318 16.384556 49.843291 -145.449916 -83.126161 81.916332 31.354040 -3.733390 2.118725 47.989446 81.178686 130.810971 -62.395568 -15.072423 -11.296071 -20.706763 -3.093502 -15.628496 -132.764811 56.857456 22.046900 8.636484 1.049223 1.065980 -19.475742 11.073263 -4.132879 7.285310 2.252604 7.706577 11.547206 0.525863 -7.788453 -25.339253 -9.959451 10.541456 -127.141377 -30.648645 58.155146 -77.068567 6.539130 168.098287 -36.541023 15.329752 169.722982 87.708695 56.865057 -0.809817 -19.327468 -81.569434 135.594017 -79.473299 -6.075384 182.934608 -81.557783 51.878257 -95.909381 160.205124 21.243847 -84.591779 16.821321 -48.636668 -105.213331
-2.016000 52.792297 0.421300 -2.721124 -51.566277 -4.321117 -176.346061 -2.183641 -179.617841 -169.250966 -9.602487 175.454006 -148.299386 8.257716 164.850497 -138.972189 -55.459675 -166.600537 1.496811 -23.430013 -0.888401 3.555640 24.247920 -7.422721 -91.388556 -19.995669 -0.905448 79.805998 -1.962243 41.128649 70.334643 -30.502021 -170.411714 134.510271 -31.367691 -38.187380 -31.777958 -30.933099 35.725760 66.585157 -13.661030 -79.011204 70.987648 -10.675496 -56.554722 -151.918503 -73.644733 -5.005629 43.354820 -7.023889 -19.655764 -5.274779 13.047288 4.623681 0.409313 3.516147 -2.633241 -14.970684 -4.987213 -14.622228 -66.941067 -3.051194 -41.598950 -182.784012 30.236699 -50.858561 -49.292066 12.499473 6.130115 14.696840 -23.832557 -62.475269 -64.909710 -81.260958 -40.891537 45.676794 -2.456855 10.240402 58.198545 15.859860 70.685788 -23.199591 68.797485 -96.643307 -151.508213 69.015534 15.245600 178.700307 68.321762 13.893537 -173.910342 47.580671 17.403314 -46.768165 -3.148813 -34.347869 -179.610492 4.162434 37.583805 123.708020 -2.948103 26.995145 31.951216 -16.599766 -18.683434 -50.528862 8.548473 47.289948 -72.548658 -1.569808 -174.545459 -109.166026 -55.687958 104.945354 -61.993754 -16.963946 86.513078 -148.319816 -25.025835 116.626926 3.126535 16.371609 10.973975 -15.730656 -62.531155 56.132075 -11.235887 -1.337608 -83.912972 162.076249 51.064619 67.894468
